<?xml version="1.0" ?><svg xmlns="http://www.w3.org/2000/svg" width="24" height="24" viewBox="0 0 24 24" fill="none"><path fill-rule="evenodd" clip-rule="evenodd" d="M12 8C9.79086 8 8 9.79086 8 12C8 14.2091 9.79086 16 12 16C14.2091 16 16 14.2091 16 12C16 9.79086 14.2091 8 12 8ZM10 12C10 10.8954 10.8954 10 12 10C13.1046 10 14 10.8954 14 12C14 13.1046 13.1046 14 12 14C10.8954 14 10 13.1046 10 12Z" fill="#0D4DDF"/><path fill-rule="evenodd" clip-rule="evenodd" d="M21.8664 11.5006C21.8665 11.5009 21.8667 11.5011 21 12C21.8667 12.4989 21.8665 12.4991 21.8664 12.4994L21.8649 12.502L21.8616 12.5076L21.8507 12.5264C21.8414 12.5421 21.8282 12.5644 21.8113 12.5927C21.7774 12.6492 21.7283 12.73 21.6646 12.8316C21.5375 13.0346 21.352 13.3213 21.1143 13.6639C20.6401 14.3471 19.9515 15.2621 19.096 16.1813C17.4344 17.9666 14.93 20 12 20C9.07001 20 6.56561 17.9666 4.90401 16.1813C4.04852 15.2621 3.35988 14.3471 2.88572 13.6639C2.64798 13.3213 2.46253 13.0346 2.33537 12.8316C2.27175 12.73 2.22261 12.6492 2.18871 12.5927C2.17176 12.5644 2.1586 12.5421 2.14934 12.5264L2.13838 12.5076L2.13512 12.502L2.13404 12.5001C2.13388 12.4998 2.13333 12.4989 3 12C2.13333 11.5011 2.13348 11.5009 2.13364 11.5006L2.13512 11.498L2.13838 11.4924L2.14934 11.4736C2.1586 11.4579 2.17176 11.4356 2.18871 11.4073C2.22261 11.3508 2.27175 11.27 2.33537 11.1684C2.46253 10.9654 2.64798 10.6787 2.88572 10.3361C3.35988 9.65286 4.04852 8.73795 4.90401 7.81872C6.56561 6.03335 9.07001 4 12 4C14.93 4 17.4344 6.03335 19.096 7.81872C19.9515 8.73795 20.6401 9.65286 21.1143 10.3361C21.352 10.6787 21.5375 10.9654 21.6646 11.1684C21.7283 11.27 21.7774 11.3508 21.8113 11.4073C21.8282 11.4356 21.8414 11.4579 21.8507 11.4736L21.8616 11.4924L21.8649 11.498L21.8664 11.5006ZM4.52881 12.5236C4.3913 12.3255 4.27355 12.1487 4.17708 12C4.27355 11.8513 4.3913 11.6745 4.52881 11.4764C4.9655 10.8471 5.59488 10.0121 6.36806 9.18128C7.96383 7.46665 9.95942 6 12 6C14.0406 6 16.0362 7.46665 17.6319 9.18128C18.4051 10.0121 19.0345 10.8471 19.4712 11.4764C19.6087 11.6745 19.7264 11.8513 19.8229 12C19.7264 12.1487 19.6087 12.3255 19.4712 12.5236C19.0345 13.1529 18.4051 13.9879 17.6319 14.8187C16.0362 16.5334 14.0406 18 12 18C9.95942 18 7.96383 16.5334 6.36806 14.8187C5.59488 13.9879 4.9655 13.1529 4.52881 12.5236Z" fill="#0D4DDF"/><path d="M21 12L21.8664 11.5006C22.0441 11.8094 22.0441 12.1906 21.8664 12.4994L21 12Z" fill="#0D4DDF"/><path d="M2.13364 11.5006L3 12L2.13333 12.4989C1.95556 12.1901 1.95586 11.8094 2.13364 11.5006Z" fill="#0D4DDF"/></svg>